<?xml version="1.0" encoding="UTF-8"?>
<svg width="20px" height="20px" viewBox="0 0 20 20" version="1.1" xmlns="http://www.w3.org/2000/svg" xmlns:xlink="http://www.w3.org/1999/xlink">
    <!-- Generator: Sketch 44.1 (41455) - http://www.bohemiancoding.com/sketch -->
    <title>Combined Shape</title>
    <desc>Created with Sketch.</desc>
    <defs></defs>
    <g id="Page-1" stroke="none" stroke-width="1" fill="none" fill-rule="evenodd">
        <g id="1280-copy-2" transform="translate(-542.000000, -100.000000)" fill="#68C0F8">
            <g id="Group-13" transform="translate(-36.000000, 79.000000)">
                <g id="Group-9" transform="translate(557.000000, 0.000000)">
                    <g id="Group-18" transform="translate(21.000000, 21.000000)">
                        <path d="M10.0033915,8.58823529 C8.15457082,8.58823529 6.65580551,7.11340859 6.65580551,5.29411765 C6.65580551,3.47482671 8.15457082,2 10.0033915,2 C11.8522122,2 13.3509776,3.47482671 13.3509776,5.29411765 C13.3509776,7.11340859 11.8522122,8.58823529 10.0033915,8.58823529 Z M16.9095477,16.0413911 C17.0571409,17.1231009 16.2793325,18 15.1819283,18 L4.82485341,18 C3.72312238,18 2.90112951,17.1067101 3.10195,16.0217357 C3.10195,16.0217357 2.82999291,10.4705882 10.0033909,10.4705882 C17.1767888,10.4705882 16.9095477,16.0413911 16.9095477,16.0413911 Z" id="Combined-Shape"></path>
                    </g>
                </g>
            </g>
        </g>
    </g>
</svg>