<svg width="60" height="60" viewBox="0 0 60 60" xmlns="http://www.w3.org/2000/svg"><title>A4C2A8D7-E631-4495-A7A6-36A4AE4FC16E</title><g transform="translate(14 9.93)" fill="#5FC48D" fill-rule="evenodd"><path d="M4 20.846v9.94c0 2.187 1.798 3.966 4.017 3.966h15.966c2.213 0 4.017-1.776 4.017-3.967v-9.94c0-2.187-1.798-3.966-4.017-3.966H8.017C5.804 16.88 4 18.655 4 20.846zm-4 0c0-4.388 3.599-7.938 8.017-7.938h15.966c4.422 0 8.017 3.551 8.017 7.938v9.94c0 4.387-3.599 7.937-8.017 7.937H8.017C3.595 38.723 0 35.172 0 30.785v-9.94z"/><path d="M10 14.9h12v-3.984c0-3.287-2.686-5.951-6-5.951-3.307 0-6 2.664-6 5.951V14.9zM16 .992c5.522 0 10 4.442 10 9.923v5.97H6v-5.97C6 5.436 10.483.993 16 .993z"/><ellipse cx="16" cy="25.816" rx="4" ry="3.972"/></g></svg>