<svg width="36" height="36" viewBox="0 0 36 36" xmlns="http://www.w3.org/2000/svg"><title>CC976B33-94CD-4BB0-B8B2-4D0EAFDF2105</title><path d="M29.006 10.901a5.926 5.926 0 0 0 2.598-3.269 11.833 11.833 0 0 1-3.752 1.434A5.901 5.901 0 0 0 23.54 7.2a5.909 5.909 0 0 0-5.755 7.255 16.775 16.775 0 0 1-12.18-6.173 5.88 5.88 0 0 0-.8 2.97 5.906 5.906 0 0 0 2.63 4.918 5.885 5.885 0 0 1-2.677-.739v.074a5.912 5.912 0 0 0 4.74 5.794 5.917 5.917 0 0 1-2.669.101 5.914 5.914 0 0 0 5.52 4.104 11.856 11.856 0 0 1-7.338 2.529c-.477 0-.948-.028-1.41-.082a16.724 16.724 0 0 0 9.057 2.654c10.869 0 16.812-9.003 16.812-16.811 0-.257-.006-.511-.017-.765A12.01 12.01 0 0 0 32.4 9.971c-1.06.47-2.198.787-3.394.93z" fill="#FFF" fill-rule="evenodd"/></svg>