<svg id="Layer_2" xmlns="http://www.w3.org/2000/svg" viewBox="0 0 36 36"><style>.st0{fill:#fff}</style><g transform="matrix(.1 0 0 -.1 0 300)"><path id="node1" class="st0" d="M61.3 2928c-4.7-2.2-9.4-6.8-11.3-11-1.2-2.6-1.7-5.7-1.7-11.6v-8l13.4-10.5c53.9-42.4 95.2-70.5 112.4-76.7 5.9-2.1 5.9-2.1 10.4-.5 9.3 3.2 19.4 8.9 38.3 21.3 9.3 6.1 11.6 7.6 26 17.9 11 7.8 35 25.9 49.9 37.7l12.9 10.2v7.9c-.1 12-3.7 18.7-12.7 22.9l-4.4 2.1-115-.1c-107.4-.1-115.1-.2-118.2-1.6z"/><path id="node2" class="st0" d="M48.3 2795.5c0-75.7-.3-72.1 5.5-78 1.6-1.7 4.7-4 6.9-5.1l4.1-2.1h229.6l4.4 2.1c5.2 2.4 9.3 6.8 11.3 12 1.3 3.5 1.4 10.5 1.2 71.7l-.3 67.9-9.4-7.4c-11.5-8.9-19.8-15.2-24.8-18.7-2-1.4-11.4-8.2-20.7-14.8-31.9-22.8-56.4-37.9-69-42.2-6.1-2.1-7.2-2.2-10.8-1.3-6.2 1.6-20.3 8.6-30.8 15.4-8.3 5.4-31.8 21-36.5 24.3-20.7 14.6-48.7 35.1-58.4 42.7l-2.5 2.1v-68.6z"/></g></svg>