<svg width="549" height="1126" viewBox="0 0 549 1126" xmlns="http://www.w3.org/2000/svg"><title>phone_new_ios</title><g stroke-width="2" stroke="#D2D7DB" fill="none" fill-rule="evenodd"><path d="M460.174 1a87.8 87.8 0 0 1 4.535.117c12.37.636 24.145.021 36.21 3.609 11.814 3.513 22.91 9.889 30.908 19.408 11.317 13.47 15.428 31.587 15.444 49.62-.001 1.732-.114 963.719 0 964.082-.64 19.362-1.576 40.667-11.998 57.456-7.262 11.699-18.747 20.522-31.949 24.4-12.353 3.63-25.297 4.976-39.381 5.228-1.25.053-2.506.08-3.769.08H87.748c-13.581 0-28.206-1.144-41.263-5.003-17.112-5.058-30.799-16.173-37.938-32.708-3.427-7.938-5.798-15.507-6.673-24.948-.874-9.442-.755-16.66-.874-25.208 0 0 .129-956.132 0-958.107.045-1.574 0-3.292 0-5.272 0-18.26 3.927-36.7 15.662-50.256 7.32-8.457 17.19-14.51 27.783-18.063 12.879-4.32 25.44-3.63 38.733-4.317A88.347 88.347 0 0 1 87.748 1h372.426z" fill="#F6F8F9"/><path d="M233 85c0-3.314 2.685-6 5.997-6h68.006A6.003 6.003 0 0 1 313 85c0 3.314-2.685 6-5.997 6h-68.006A6.003 6.003 0 0 1 233 85zm40-18a6 6 0 1 0 0-12 6 6 0 0 0 0 12z" fill="#EEF2F5"/></g></svg>