<svg id="Layer_1" data-name="Layer 1" xmlns="http://www.w3.org/2000/svg" viewBox="0 0 13.47697 17.35495">
  <g>
    <path d="M1218.7771,50.7064h-4.8704c-0.0102,0-.0204-0.002-0.0306-0.002a2.46427,2.46427,0,0,0-2.4504,2.4787v12.396a2.45061,2.45061,0,1,0,4.9009,0V63.0983h2.4505A6.19637,6.19637,0,0,0,1218.7771,50.7064Z" transform="translate(-1211.4257 -50.7044)" style="fill: #fff"/>
    <g>
      <ellipse cx="2.45042" cy="2.4808" rx="2.45045" ry="2.4788" style="fill: #fff"/>
      <path d="M1224.4588,64.1582a2.49556,2.49556,0,0,1-.6014,3.4522,2.4314,2.4314,0,0,1-3.4127-.6084l-3.6696-5.304a2.49563,2.49563,0,0,1,.6014-3.4521,2.42975,2.42975,0,0,1,3.4127.6063Z" transform="translate(-1211.4257 -50.7044)" style="fill: #fff"/>
    </g>
  </g>
</svg>
