<svg width="60" height="60" viewBox="0 0 60 60" xmlns="http://www.w3.org/2000/svg"><title>5036CA0C-CE35-498B-B3A0-2804F4E79402</title><g fill="#7099E6" fill-rule="evenodd"><path d="M22.098 22.72c4.324-3.434 11.48-3.435 15.804 0l8.883 7.067-8.883 7.067c-4.324 3.435-11.48 3.435-15.804 0l-8.955-7.067 8.955-7.067zM8.751 28.237l-1.953 1.55 1.953 1.55 10.848 8.618c5.786 4.596 15.017 4.596 20.802 0l10.848-8.617 1.953-1.55-1.953-1.551-10.848-8.618c-5.786-4.596-15.017-4.595-20.802 0L8.751 28.237z"/><path d="M30 35.759c3.31 0 6-2.67 6-5.972 0-3.301-2.69-5.971-6-5.971s-6 2.67-6 5.971 2.69 5.972 6 5.972zm0-4c-1.108 0-2-.886-2-1.972 0-1.085.892-1.971 2-1.971s2 .886 2 1.971c0 1.086-.892 1.972-2 1.972z"/></g></svg>