<svg width="60" height="60" viewBox="0 0 60 60" xmlns="http://www.w3.org/2000/svg"><title>2958C635-C8BA-4CB1-8880-4385E7B235F5</title><g fill="none" fill-rule="evenodd"><path d="M33 56.074c13.255 0 24-10.56 24-23.588S46.255 8.897 33 8.897 9 19.458 9 32.486c0 13.027 10.745 23.588 24 23.588z" fill="#CFEEDD"/><path d="M28 51.177c-13.255 0-24-10.56-24-23.588S14.745 4 28 4s24 10.561 24 23.589c0 13.027-10.745 23.588-24 23.588z" fill="#5FC48D"/><path d="M48 27.589C48 16.786 39.061 8 28 8S8 16.786 8 27.589c0 10.802 8.939 19.588 20 19.588s20-8.786 20-19.588z" fill="#CFEEDD"/><path d="M30.371 31.352c0-.664-.234-1.174-.703-1.53-.469-.355-1.313-.73-2.531-1.124-1.219-.395-2.184-.783-2.895-1.166-1.937-1.047-2.906-2.457-2.906-4.23 0-.923.26-1.745.78-2.468.519-.722 1.265-1.287 2.238-1.693.972-.406 2.064-.61 3.275-.61 1.219 0 2.305.221 3.258.663.953.441 1.693 1.064 2.22 1.869.528.805.791 1.719.791 2.742h-3.515c0-.781-.246-1.389-.738-1.822-.493-.434-1.184-.65-2.075-.65-.86 0-1.527.181-2.004.544-.476.364-.714.842-.714 1.436 0 .555.279 1.02.837 1.394.559.375 1.381.727 2.467 1.055 2 .602 3.457 1.348 4.371 2.238.914.891 1.371 2 1.371 3.329 0 1.476-.558 2.634-1.675 3.474-1.118.84-2.621 1.26-4.512 1.26-1.313 0-2.508-.24-3.586-.72-1.078-.481-1.9-1.14-2.467-1.975-.566-.836-.85-1.805-.85-2.907h3.528c0 1.883 1.125 2.825 3.375 2.825.836 0 1.488-.17 1.957-.51.469-.34.703-.815.703-1.424z" fill="#5FC48D"/></g></svg>