<svg width="60" height="60" viewBox="0 0 60 60" xmlns="http://www.w3.org/2000/svg"><title>6F7C31E1-35B6-4311-A8F9-9D0D004800B2</title><g fill="#A187D5" fill-rule="evenodd"><path d="M8 18.865c0-2.739 2.243-4.964 5-4.964 2.758 0 5 2.227 5 4.964 0 2.739-2.243 4.965-5 4.965-2.758 0-5-2.228-5-4.965zm-4 0c0 4.93 4.032 8.936 9 8.936 4.965 0 9-4.003 9-8.936 0-4.93-4.032-8.936-9-8.936-4.965 0-9 4.003-9 8.936zm12 22.837c0-3.287 2.692-5.957 6-5.957 3.31 0 6 2.672 6 5.957 0 3.287-2.692 5.958-6 5.958-3.31 0-6-2.673-6-5.958zm-4 0c0 5.478 4.48 9.93 10 9.93 5.517 0 10-4.449 10-9.93 0-5.477-4.48-9.929-10-9.929-5.517 0-10 4.448-10 9.93z"/><path d="M18.335 17.026l9.848 1.737-.518 2.934-9.848-1.737zm19.889 6.398l5.657 5.657-2.106 2.106-5.657-5.657z"/><path d="M30 21.844c0-2.19 1.795-3.972 4-3.972 2.206 0 4 1.783 4 3.972 0 2.19-1.795 3.972-4 3.972-2.206 0-4-1.783-4-3.972zm-4 0c0 4.382 3.584 7.943 8 7.943 4.414 0 8-3.558 8-7.943 0-4.382-3.584-7.943-8-7.943-4.414 0-8 3.558-8 7.943zm18.027 14.053L28.992 41.37l-1.02-2.799 15.036-5.472z"/><path d="M44 33.759c0-2.191 1.795-3.972 4-3.972 2.206 0 4 1.782 4 3.972s-1.795 3.971-4 3.971c-2.206 0-4-1.782-4-3.971zm-4 0c0 4.382 3.584 7.943 8 7.943 4.414 0 8-3.558 8-7.943 0-4.382-3.584-7.943-8-7.943-4.414 0-8 3.558-8 7.943zm-23.583-7.667l3.908 9.205-2.742 1.164-3.908-9.205z"/></g></svg>