<svg width="86" height="77" viewBox="0 0 86 77" xmlns="http://www.w3.org/2000/svg" xmlns:xlink="http://www.w3.org/1999/xlink"><title>0E330057-9996-4EBD-9727-20E33F7306EE</title><defs><linearGradient x1="50%" y1="0%" x2="50%" y2="100%" id="b"><stop stop-color="#2BABEE" offset="0%"/><stop stop-color="#2996CE" offset="100%"/></linearGradient><linearGradient x1="91.929%" y1="114.526%" x2="43.036%" y2="30.512%" id="c"><stop stop-color="#9E39F6" offset="0%"/><stop stop-color="#2BABEE" offset="100%"/></linearGradient><path d="M42.548 38.862h-2.407C18.627 38.862 1.069 21.93.072.657h44.883c10.549 0 19.1 8.55 19.1 19.102 0 10.55-8.552 19.103-19.1 19.103h-2.407z" id="a"/><filter x="-50%" y="-50%" width="200%" height="200%" filterUnits="objectBoundingBox" id="d"><feGaussianBlur stdDeviation="7" in="SourceGraphic"/></filter><filter x="-50%" y="-50%" width="200%" height="200%" filterUnits="objectBoundingBox" id="f"><feGaussianBlur stdDeviation="2" in="SourceGraphic"/></filter><linearGradient x1="50%" y1="0%" x2="50%" y2="100%" id="h"><stop stop-color="#2991C7" offset="0%"/><stop stop-color="#2BABEE" offset="100%"/></linearGradient><linearGradient x1="37.793%" y1="15.793%" y2="161.075%" id="i"><stop stop-color="#B674F1" offset="0%"/><stop stop-color="#6B93E8" offset="51.545%"/><stop stop-color="#2BABEE" offset="100%"/></linearGradient><path d="M41.79 38.205h-1.407C18.87 38.205 1.312 21.273.315 0h42.883c10.549 0 19.1 8.55 19.1 19.103 0 10.55-8.552 19.102-19.1 19.102h-1.407z" id="g"/><filter x="-50%" y="-50%" width="200%" height="200%" filterUnits="objectBoundingBox" id="j"><feGaussianBlur stdDeviation="2" in="SourceGraphic"/></filter></defs><g fill="none" fill-rule="evenodd"><g transform="translate(0 37.608)"><mask id="e" fill="#fff"><use xlink:href="#a"/></mask><g transform="matrix(-1 0 0 1 64.128 0)"><use fill="url(#b)" xlink:href="#a"/><use fill-opacity=".8" fill="url(#c)" xlink:href="#a"/></g><path d="M62.62 3.104h-3.047c-21.513 0-39.071-16.933-40.068-38.205h46.163c10.548 0 19.1 8.55 19.1 19.102 0 10.55-8.553 19.103-19.1 19.103H62.62z" fill="#481F7B" opacity=".5" filter="url(#d)" mask="url(#e)" transform="matrix(1 0 0 -1 0 -31.997)"/><path d="M62.62-1.91h-3.047c-21.513 0-39.071-16.933-40.068-38.206h46.163c10.548 0 19.1 8.55 19.1 19.103 0 10.55-8.553 19.103-19.1 19.103H62.62z" fill="#481F7B" opacity=".7" filter="url(#f)" mask="url(#e)" transform="matrix(1 0 0 -1 0 -42.026)"/></g><g transform="translate(23.19)"><mask id="k" fill="#fff"><use xlink:href="#g"/></mask><g transform="matrix(1 0 0 -1 0 38.205)"><use fill="url(#h)" xlink:href="#g"/><use fill="url(#i)" xlink:href="#g"/></g><ellipse fill="#FFF" opacity=".1" filter="url(#j)" mask="url(#k)" transform="rotate(22 47.255 .627)" cx="47.255" cy=".627" rx="17.271" ry="4.388"/></g></g></svg>