<svg width="147" height="154" viewBox="0 0 147 154" xmlns="http://www.w3.org/2000/svg"><title>7DDEF643-433C-4DEE-B018-F857F4796C5F</title><defs><filter x="-50%" y="-50%" width="200%" height="200%" filterUnits="objectBoundingBox" id="a"><feGaussianBlur stdDeviation="2" in="SourceGraphic"/></filter><filter x="-50%" y="-50%" width="200%" height="200%" filterUnits="objectBoundingBox" id="b"><feGaussianBlur stdDeviation="10" in="SourceGraphic"/></filter><filter x="-50%" y="-50%" width="200%" height="200%" filterUnits="objectBoundingBox" id="c"><feGaussianBlur stdDeviation="10" in="SourceGraphic"/></filter></defs><g fill="none" fill-rule="evenodd"><path d="M21.046 88.404h1.75c21.38 0 38.827-16.8 39.818-37.905H19.296C8.814 50.5.316 58.982.316 69.452c0 10.467 8.509 18.952 18.98 18.952h1.75zm39.76-75.87h-1.751c-21.379 0-38.827 16.8-39.817 37.906h43.317c10.483 0 18.98-8.483 18.98-18.953 0-10.467-8.508-18.952-18.98-18.952h-1.75z" fill="#524B60" opacity=".2" filter="url(#a)" transform="translate(25 28)"/><path d="M28.535 98h1.923c23.485 0 42.653-18.455 43.74-41.64H26.613c-11.515 0-20.85 9.318-20.85 20.82C5.763 88.678 15.11 98 26.613 98h1.923zm43.677-83.347H70.29c-23.485 0-42.652 18.456-43.74 41.641h47.586c11.515 0 20.85-9.319 20.85-20.82 0-11.499-9.347-20.82-20.85-20.82h-1.923z" fill="#2D9DF1" opacity=".1" filter="url(#b)" transform="translate(25 28)"/><path d="M24.85 83.347h1.924c23.485 0 42.652-18.456 43.74-41.641H22.929c-11.515 0-20.85 9.319-20.85 20.82 0 11.499 9.347 20.82 20.85 20.82h1.923zM68.529 0h-1.923C43.12 0 23.952 18.455 22.865 41.64H70.45c11.515 0 20.85-9.318 20.85-20.82C91.302 9.322 81.955 0 70.452 0h-1.923z" fill="#C4A6FF" opacity=".1" filter="url(#c)" transform="translate(25 28)"/></g></svg>