<svg id="Layer_1" data-name="Layer 1" xmlns="http://www.w3.org/2000/svg" viewBox="0 0 21.86 26.3874">
  <title>dot</title>
  <g>
    <g>
      <circle cx="746.02939" cy="3398.1632" r="10.93003" transform="translate(-2919.4567 -1864.41177) rotate(-45)" style="fill: #495c69"/>
      <rect x="740.56437" y="3400.42688" width="10.93003" height="10.93003" transform="translate(-2924.92172 -1862.14808) rotate(-45)" style="fill: #495c69"/>
    </g>
    <path d="M746.02939,3389.8944a7.99875,7.99875,0,1,0,7.99881,7.9987A7.99976,7.99976,0,0,0,746.02939,3389.8944Zm-1.2266,11.5527a1.83365,1.83365,0,0,1-2.0615-1.5298c-0.0513-.9655.6996-1.6091,1.94491-1.6837,0.91879-.0513,1.49239.1586,2.41119,0.1073a3.81118,3.81118,0,0,0,.6763-0.098A3.33861,3.33861,0,0,1,744.80279,3401.4471Zm2.5745-3.6286c-0.9608.056-1.5578-.1679-2.5186-0.1119a4.06949,4.06949,0,0,0-.7042.1026,3.53839,3.53839,0,0,1,3.1015-3.4234,1.91647,1.91647,0,0,1,2.1501,1.637C749.46209,3397.0536,748.67849,3397.7439,747.37729,3397.8185Z" transform="translate(-735.09939 -3387.2332)" style="fill: #fff"/>
  </g>
</svg>
