<svg width="60" height="60" viewBox="0 0 60 60" xmlns="http://www.w3.org/2000/svg"><title>97FC3A42-1310-4ACD-BBDE-E74D0341D132</title><g fill="none" fill-rule="evenodd"><ellipse fill="#E2EBFA" cx="18" cy="33.451" rx="12" ry="11.794"/><path d="M44 37.52h3.057A2.95 2.95 0 0 0 50 34.571a2.938 2.938 0 0 0-2.943-2.948H28.943A2.95 2.95 0 0 0 26 34.57a2.938 2.938 0 0 0 2.943 2.949H38v3.044a2.998 2.998 0 0 0 3 2.99c1.668 0 3-1.338 3-2.99V37.52z" fill="#E2EBFA"/><path d="M22 39.383c-6.627 0-12-5.28-12-11.794s5.373-11.795 12-11.795 12 5.28 12 11.795c0 6.513-5.373 11.794-12 11.794z" fill="#7099E6"/><path d="M22 33.383c3.337 0 6-2.618 6-5.794 0-3.177-2.663-5.795-6-5.795s-6 2.618-6 5.795c0 3.176 2.663 5.794 6 5.794z" fill="#E2EBFA"/><path d="M48 31.52h3.057A2.95 2.95 0 0 0 54 28.571a2.938 2.938 0 0 0-2.943-2.948H32.943A2.95 2.95 0 0 0 30 28.57a2.938 2.938 0 0 0 2.943 2.949H42v3.044a2.998 2.998 0 0 0 3 2.99c1.668 0 3-1.338 3-2.99V31.52z" fill="#7099E6"/></g></svg>