<svg width="649" height="1330" viewBox="0 0 649 1330" xmlns="http://www.w3.org/2000/svg"><title>phone_big</title><g fill="none" fill-rule="evenodd"><path d="M542.32 1c1.794 0 3.577.046 5.347.138 14.583.751 28.465.026 42.688 4.264 13.928 4.15 27.01 11.683 36.438 22.93C640.135 44.248 644.981 65.653 645 86.96c-.002 2.045-.135 1138.628 0 1139.057-.755 22.876-1.859 48.048-14.144 67.884-8.562 13.822-22.102 24.246-37.665 28.829-14.563 4.288-29.823 5.879-46.427 6.176-1.473.063-2.954.095-4.443.095H103.267c-16.01 0-33.251-1.351-48.645-5.911-20.173-5.976-36.309-19.109-44.725-38.644-4.04-9.378-6.835-18.321-7.866-29.477C1 1243.813 1.14 1235.285 1 1225.185c0 0 .152-1129.664 0-1131.997.053-1.86 0-3.89 0-6.23 0-21.573 4.63-43.36 18.464-59.377 8.63-9.992 20.265-17.143 32.754-21.341C67.4 1.137 82.209 1.952 97.879 1.14c1.784-.093 3.58-.14 5.388-.14h439.054z" stroke="#D2D7DB" stroke-width="2" fill="#F6F8F9"/><path d="M644.593 435.068h2c1.105 0 2 .825 2 1.847v78.306c0 1.02-.888 1.847-2 1.847h-2v-82zm0 116.78h2c1.105 0 2 .82 2 1.835v98.329c0 1.014-.888 1.835-2 1.835h-2v-102z" fill="#CCD1D5"/><path d="M250.932 71.102c0-3.314 2.95-6 6.574-6h216.852c3.63 0 6.574 2.693 6.574 6 0 3.313-2.95 6-6.574 6H257.506c-3.63 0-6.574-2.693-6.574-6zM165 71c0-3.866 3.142-7 7-7 3.866 0 7 3.142 7 7 0 3.866-3.142 7-7 7-3.866 0-7-3.142-7-7zm53.584 1187h208.832c3.636 0 6.584 3.142 6.584 7 0 3.866-2.95 7-6.584 7H218.584c-3.636 0-6.584-3.142-6.584-7 0-3.866 2.95-7 6.584-7z" stroke="#D2D7DB" stroke-width="2" fill="#EEF2F5"/></g></svg>